<svg width="31" height="31" viewBox="0 0 31 31" fill="none" xmlns="http://www.w3.org/2000/svg">
<g clip-path="url(#clip0_348_24748)">
<path d="M30.9785 15.7627C30.9785 7.47754 24.2637 0.762695 15.9785 0.762695C7.69336 0.762695 0.978516 7.47754 0.978516 15.7627C0.978516 24.0479 7.69336 30.7627 15.9785 30.7627C16.0664 30.7627 16.1543 30.7627 16.2422 30.7568V19.085H13.0195V15.3291H16.2422V12.5635C16.2422 9.3584 18.1992 7.6123 21.0586 7.6123C22.4297 7.6123 23.6074 7.71191 23.9473 7.75879V11.1104H21.9785C20.4258 11.1104 20.1211 11.8486 20.1211 12.9326V15.3232H23.8418L23.3555 19.0791H20.1211V30.1826C26.3906 28.3838 30.9785 22.6123 30.9785 15.7627Z" fill="white"/>
</g>
<defs>
<clipPath id="clip0_348_24748">
<rect width="30" height="30" fill="white" transform="translate(0.978516 0.762695)"/>
</clipPath>
</defs>
</svg>
