<svg width="31" height="31" viewBox="0 0 31 31" fill="none" xmlns="http://www.w3.org/2000/svg">
<g clip-path="url(#clip0_348_24754)">
<path d="M30.0996 15.7628C30.0996 14.8203 30.0112 13.877 29.8361 12.9612C29.7571 12.5467 29.3941 12.2471 28.9727 12.2471H15.1582C14.6724 12.2471 14.2793 12.6402 14.2793 13.126V18.3994C14.2793 18.8852 14.6724 19.2783 15.1582 19.2783H22.2461C21.8045 20.1723 21.1959 20.9481 20.4812 21.6007L25.4488 26.5683C28.3071 23.8451 30.0996 20.0131 30.0996 15.7628Z" fill="white"/>
<path d="M15.0998 7.79395C16.8242 7.79395 18.4644 8.34156 19.8428 9.37838C20.1913 9.64018 20.6831 9.60842 20.9921 9.29682L24.7429 5.546C24.9171 5.37174 25.0107 5.13227 24.9995 4.88594C24.9884 4.63961 24.8751 4.40957 24.6862 4.25078C22.0023 2.00125 18.5974 0.762695 15.0998 0.762695C9.95242 0.762695 5.40502 3.37914 2.7168 7.35168L7.87586 12.5107C9.10668 9.73832 11.8759 7.79395 15.0998 7.79395Z" fill="white"/>
<path d="M15.0998 30.7627C18.4551 30.7627 21.5447 29.6377 24.0413 27.7635L18.9805 22.7027C17.8238 23.354 16.5017 23.7314 15.0998 23.7314C11.8759 23.7314 9.10668 21.7871 7.87586 19.0146L2.7168 24.1737C5.40502 28.1462 9.95242 30.7627 15.0998 30.7627Z" fill="white"/>
<path d="M7.25883 17.0288C7.1915 16.6141 7.13086 16.1963 7.13086 15.7629C7.13086 15.3295 7.1915 14.9118 7.25883 14.497L1.74375 8.98193C0.700312 11.0198 0.0996094 13.3205 0.0996094 15.7629C0.0996094 18.2054 0.700313 20.506 1.74381 22.5439L7.25883 17.0288Z" fill="white"/>
</g>
<defs>
<clipPath id="clip0_348_24754">
<rect width="30" height="30" fill="white" transform="translate(0.0996094 0.762695)"/>
</clipPath>
</defs>
</svg>
