<svg width="31" height="31" viewBox="0 0 31 31" fill="none" xmlns="http://www.w3.org/2000/svg">
<path d="M15.0996 0.262695C12.1329 0.262695 9.23281 1.14243 6.76607 2.79065C4.29933 4.43887 2.37674 6.78155 1.24142 9.52244C0.106109 12.2633 -0.190942 15.2793 0.387837 18.1891C0.966616 21.0988 2.39523 23.7715 4.49302 25.8693C6.59081 27.9671 9.26355 29.3957 12.1733 29.9745C15.083 30.5533 18.099 30.2562 20.8399 29.1209C23.5808 27.9856 25.9235 26.063 27.5717 23.5963C29.2199 21.1295 30.0996 18.2294 30.0996 15.2627C30.0996 11.2844 28.5193 7.46914 25.7062 4.65609C22.8932 1.84305 19.0779 0.262695 15.0996 0.262695V0.262695ZM10.7378 23.1574H7.46541V12.616H10.7378V23.1574ZM9.09962 11.1772C8.72302 11.1787 8.3544 11.0686 8.04037 10.8607C7.72635 10.6528 7.481 10.3565 7.33535 10.0092C7.1897 9.66187 7.15028 9.27918 7.22208 8.90947C7.29388 8.53977 7.47367 8.19965 7.73873 7.93211C8.00379 7.66457 8.34222 7.48162 8.71124 7.40637C9.08025 7.33113 9.46329 7.36698 9.81194 7.50939C10.1606 7.65179 10.4592 7.89437 10.67 8.20644C10.8808 8.51852 10.9944 8.88609 10.9963 9.2627C10.9974 9.7677 10.7985 10.2526 10.443 10.6113C10.0876 10.9701 9.60461 11.1735 9.09962 11.1772ZM22.9944 23.1574H19.724V18.0259C19.724 16.8022 19.7003 15.2331 18.0227 15.2331C16.345 15.2331 16.049 16.5634 16.049 17.937V23.1574H12.7904V12.616H15.9305V14.0528H15.9759C16.4121 13.2239 17.4799 12.3495 19.0727 12.3495C22.3845 12.3495 22.9944 14.5324 22.9944 17.3666V23.1574Z" fill="white"/>
</svg>
