<svg width="13" height="13" viewBox="0 0 13 13" fill="none" xmlns="http://www.w3.org/2000/svg">
<g clip-path="url(#clip0_188_5112)">
<path d="M6.24023 0.0908203C4.49557 0.0908203 3.07617 1.51022 3.07617 3.25488C3.07617 4.99955 4.49557 6.41895 6.24023 6.41895C7.9849 6.41895 9.4043 4.99955 9.4043 3.25488C9.4043 1.51022 7.9849 0.0908203 6.24023 0.0908203Z" fill="white"/>
<path d="M10.1769 8.48602C9.31069 7.60645 8.16232 7.12207 6.94336 7.12207H5.53711C4.31817 7.12207 3.16978 7.60645 2.30353 8.48602C1.44152 9.36127 0.966797 10.5166 0.966797 11.7393C0.966797 11.9334 1.1242 12.0908 1.31836 12.0908H11.1621C11.3563 12.0908 11.5137 11.9334 11.5137 11.7393C11.5137 10.5166 11.0389 9.36127 10.1769 8.48602Z" fill="white"/>
</g>
<defs>
<clipPath id="clip0_188_5112">
<rect width="12" height="12" fill="white" transform="translate(0.240234 0.0908203)"/>
</clipPath>
</defs>
</svg>
