<svg width="31" height="31" viewBox="0 0 31 31" fill="none" xmlns="http://www.w3.org/2000/svg">
<path d="M15.9785 0.762695C7.69551 0.762695 0.978516 7.47969 0.978516 15.7627C0.978516 24.0457 7.69551 30.7627 15.9785 30.7627C24.2615 30.7627 30.9785 24.0457 30.9785 15.7627C30.9785 7.47969 24.2615 0.762695 15.9785 0.762695ZM22.8273 12.4581C22.834 12.6057 22.8372 12.754 22.8372 12.903C22.8372 17.4525 19.3742 22.6987 13.0413 22.699H13.0415H13.0413C11.0969 22.699 9.28761 22.129 7.76395 21.1524C8.03334 21.1842 8.30754 21.2 8.58517 21.2C10.1983 21.2 11.6829 20.6498 12.8614 19.7262C11.3542 19.6983 10.0834 18.7029 9.6449 17.3349C9.85478 17.3752 10.0706 17.3971 10.2919 17.3971C10.6062 17.3971 10.9106 17.3548 11.1999 17.2758C9.62453 16.9604 8.43777 15.5681 8.43777 13.901C8.43777 13.8854 8.43777 13.8714 8.43823 13.857C8.90218 14.115 9.43272 14.2702 9.9976 14.2876C9.07315 13.6707 8.46547 12.6163 8.46547 11.4217C8.46547 10.7909 8.63599 10.2 8.9317 9.69115C10.6295 11.7744 13.1669 13.1445 16.0284 13.2885C15.9694 13.0363 15.9389 12.7735 15.9389 12.5034C15.9389 10.6028 17.4809 9.06081 19.3822 9.06081C20.3726 9.06081 21.2671 9.47943 21.8953 10.1487C22.6797 9.99396 23.4163 9.7074 24.0816 9.31303C23.8241 10.1166 23.2785 10.7909 22.5676 11.2173C23.2641 11.134 23.9278 10.9493 24.5446 10.6751C24.0839 11.3656 23.4996 11.9722 22.8273 12.4581Z" fill="white"/>
</svg>
