<?xml version="1.0" standalone="no"?>
<!DOCTYPE svg PUBLIC "-//W3C//DTD SVG 1.1//EN" "http://www.w3.org/Graphics/SVG/1.1/DTD/svg11.dtd" >
<svg xmlns="http://www.w3.org/2000/svg">
<metadata>Generated by IcoMoon</metadata>
<defs>
<font id="zhzh-font" horiz-adv-x="1024">
<font-face units-per-em="1024" ascent="960" descent="-64" />
<missing-glyph horiz-adv-x="1024" />
<glyph unicode="&#x20;" horiz-adv-x="512" d="" />
<glyph unicode="&#xe900;" glyph-name="arrow-next" d="M426.667 704l-60.16-60.16 195.413-195.84-195.413-195.84 60.16-60.16 256 256z" />
<glyph unicode="&#xe901;" glyph-name="arrow-prev" d="M657.493 643.84l-60.16 60.16-256-256 256-256 60.16 60.16-195.413 195.84z" />
<glyph unicode="&#xe902;" glyph-name="assignment" d="M810.667 832h-178.347c-17.92 49.493-64.853 85.333-120.32 85.333s-102.4-35.84-120.32-85.333h-178.347c-46.933 0-85.333-38.4-85.333-85.333v-597.333c0-46.933 38.4-85.333 85.333-85.333h597.333c46.933 0 85.333 38.4 85.333 85.333v597.333c0 46.933-38.4 85.333-85.333 85.333zM512 832c23.467 0 42.667-19.2 42.667-42.667s-19.2-42.667-42.667-42.667-42.667 19.2-42.667 42.667 19.2 42.667 42.667 42.667zM512 661.333c70.827 0 128-57.173 128-128s-57.173-128-128-128-128 57.173-128 128 57.173 128 128 128zM768 149.333h-512v59.733c0 85.333 170.667 132.267 256 132.267s256-46.933 256-132.267v-59.733z" />
<glyph unicode="&#xe903;" glyph-name="calendar" d="M853.333 832h-42.667v85.333h-85.333v-85.333h-426.667v85.333h-85.333v-85.333h-42.667c-46.933 0-85.333-38.4-85.333-85.333v-682.667c0-46.933 38.4-85.333 85.333-85.333h682.667c46.933 0 85.333 38.4 85.333 85.333v682.667c0 46.933-38.4 85.333-85.333 85.333zM853.333 64h-682.667v554.667h682.667v-554.667z" />
<glyph unicode="&#xe904;" glyph-name="camera" d="M648.533 448c0-75.405-61.128-136.533-136.533-136.533s-136.533 61.128-136.533 136.533c0 75.405 61.128 136.533 136.533 136.533s136.533-61.128 136.533-136.533zM384 874.667l-78.080-85.333h-135.253c-46.933 0-85.333-38.4-85.333-85.333v-512c0-46.933 38.4-85.333 85.333-85.333h682.667c46.933 0 85.333 38.4 85.333 85.333v512c0 46.933-38.4 85.333-85.333 85.333h-135.253l-78.080 85.333h-256zM512 234.667c-117.76 0-213.333 95.573-213.333 213.333s95.573 213.333 213.333 213.333 213.333-95.573 213.333-213.333-95.573-213.333-213.333-213.333z" />
<glyph unicode="&#xe905;" glyph-name="clock" d="M512 874.667c-234.667 0-426.667-192-426.667-426.667s192-426.667 426.667-426.667 426.667 192 426.667 426.667-192 426.667-426.667 426.667zM691.2 268.8l-221.867 136.533v256h64v-221.867l192-115.2-34.133-55.467z" />
<glyph unicode="&#xe906;" glyph-name="comment" d="M853.333 874.667h-682.667c-46.933 0-84.907-38.4-84.907-85.333l-0.427-768 170.667 170.667h597.333c46.933 0 85.333 38.4 85.333 85.333v512c0 46.933-38.4 85.333-85.333 85.333zM256 576h512v-85.333h-512v85.333zM597.333 362.667h-341.333v85.333h341.333v-85.333zM768 618.667h-512v85.333h512v-85.333z" />
<glyph unicode="&#xe907;" glyph-name="done" d="M384 268.8l-179.2 179.2-59.733-59.733 238.933-238.933 512 512-59.733 59.733-452.267-452.267z" />
<glyph unicode="&#xe908;" glyph-name="email" d="M853.333 789.333h-682.667c-46.933 0-84.907-38.4-84.907-85.333l-0.427-512c0-46.933 38.4-85.333 85.333-85.333h682.667c46.933 0 85.333 38.4 85.333 85.333v512c0 46.933-38.4 85.333-85.333 85.333zM853.333 618.667l-341.333-213.333-341.333 213.333v85.333l341.333-213.333 341.333 213.333v-85.333z" />
<glyph unicode="&#xe909;" glyph-name="expand-less" d="M512 618.667l-256-256 60.16-60.16 195.84 195.413 195.84-195.413 60.16 60.16z" />
<glyph unicode="&#xe90a;" glyph-name="expand-more" d="M707.84 593.493l-195.84-195.413-195.84 195.413-60.16-60.16 256-256 256 256z" />
<glyph unicode="&#xe90b;" glyph-name="fire" d="M831.147 433.067c-66.987 174.080-305.493 183.467-247.893 436.48 4.267 18.773-15.787 33.28-32 23.467-154.88-91.307-266.24-274.347-172.8-514.133 7.68-19.627-15.36-37.973-32-25.173-77.227 58.453-85.333 142.507-78.507 202.667 2.56 22.187-26.453 32.853-38.827 14.507-29.013-44.373-58.453-116.053-58.453-224 16.213-238.933 218.027-312.32 290.56-321.707 103.68-13.227 215.893 5.973 296.533 79.787 88.747 82.347 121.173 213.76 73.387 328.107zM435.2 218.453c61.44 14.933 93.013 59.307 101.547 98.56 14.080 61.013-40.96 120.747-3.84 217.173 14.080-79.787 139.52-129.707 139.52-216.747 3.413-107.947-113.493-200.533-237.227-98.987z" />
<glyph unicode="&#xe90c;" glyph-name="menu-open" d="M128 192h554.667v85.333h-554.667v-85.333zM128 405.333h426.667v85.333h-426.667v-85.333zM128 704v-85.333h554.667v85.333h-554.667zM896 294.827l-152.747 153.173 152.747 153.173-60.16 60.16-213.333-213.333 213.333-213.333 60.16 60.16z" />
<glyph unicode="&#xe90d;" glyph-name="model-training" d="M661.333 384c0-85.333-106.667-149.333-106.667-213.333h-85.333c0 64-106.667 128-106.667 213.333 0 82.347 66.987 149.333 149.333 149.333v0c82.347 0 149.333-66.987 149.333-149.333zM554.667 128h-85.333v-64h85.333v64zM810.667 405.333c0-71.68-25.173-136.96-67.413-188.587l60.587-60.587c57.173 66.987 92.16 154.027 92.16 249.173 0 116.907-52.48 221.44-134.827 291.84l-60.587-60.587c66.987-54.613 110.080-138.24 110.080-231.253zM682.667 746.667l-170.667 170.667v-128c0 0 0 0 0 0-212.053 0-384-171.947-384-384 0-95.147 34.987-182.187 92.16-249.173l60.587 60.587c-42.24 51.627-67.413 116.907-67.413 188.587 0 164.693 133.973 298.667 298.667 298.667 0 0 0 0 0 0v-128l170.667 170.667z" />
<glyph unicode="&#xe90e;" glyph-name="newspaper" d="M938.667 832l-71.253-71.253-70.827 71.253-71.253-71.253-71.253 71.253-70.827-71.253-71.253 71.253-71.253-71.253-70.827 71.253-71.253-71.253-71.253 71.253-70.827-71.253-71.253 71.253v-682.667c0-46.933 38.4-85.333 85.333-85.333h682.667c46.933 0 85.333 38.4 85.333 85.333v682.667zM469.333 149.333h-298.667v256h298.667v-256zM853.333 149.333h-298.667v85.333h298.667v-85.333zM853.333 320h-298.667v85.333h298.667v-85.333zM853.333 490.667h-682.667v128h682.667v-128z" />
<glyph unicode="&#xe90f;" glyph-name="person" d="M491.538 952.846c-137.426 0-249.231-111.805-249.231-249.231s111.805-249.231 249.231-249.231c137.426 0 249.231 111.805 249.231 249.231s-111.805 249.231-249.231 249.231zM801.627 291.563c-68.231 69.283-158.687 107.437-254.703 107.437h-110.769c-96.015 0-186.473-38.154-254.707-107.437-67.9-68.943-105.293-159.947-105.293-256.258 0-15.289 12.399-27.687 27.692-27.687h775.384c15.297 0 27.695 12.398 27.695 27.687 0 96.311-37.4 187.316-105.299 256.258z" />
<glyph unicode="&#xe910;" glyph-name="person-outline" d="M512 708.267c49.493 0 89.6-40.107 89.6-89.6s-40.107-89.6-89.6-89.6-89.6 40.107-89.6 89.6 40.107 89.6 89.6 89.6zM512 324.267c126.72 0 260.267-62.293 260.267-89.6v-46.933h-520.533v46.933c0 27.307 133.547 89.6 260.267 89.6zM512 789.333c-94.293 0-170.667-76.373-170.667-170.667s76.373-170.667 170.667-170.667 170.667 76.373 170.667 170.667-76.373 170.667-170.667 170.667zM512 405.333c-113.92 0-341.333-57.173-341.333-170.667v-128h682.667v128c0 113.493-227.413 170.667-341.333 170.667z" />
<glyph unicode="&#xe911;" glyph-name="phone" d="M853.76 303.787c-52.48 0-103.253 8.533-150.613 23.893-14.933 5.12-31.573 1.28-43.093-10.24l-66.987-84.053c-120.747 57.6-233.813 166.4-293.973 291.413l83.2 70.827c11.52 11.947 14.933 28.587 10.24 43.52-15.787 47.36-23.893 98.133-23.893 150.613 0 23.040-19.2 42.24-42.24 42.24h-147.627c-23.040 0-50.773-10.24-50.773-42.24 0-396.373 329.813-725.76 725.76-725.76 30.293 0 42.24 26.88 42.24 50.347v147.2c0 23.040-19.2 42.24-42.24 42.24z" />
<glyph unicode="&#xe912;" glyph-name="published" d="M793.6 128h102.4v-85.333h-256v256h85.333v-116.48c78.080 62.72 128 158.293 128 265.813 0 173.653-130.56 317.44-298.667 338.347v86.187c215.467-21.333 384-203.093 384-424.533 0-127.573-56.32-241.92-145.067-320zM170.667 448c0 107.52 49.92 203.52 128 265.813v-116.48h85.333v256h-256v-85.333h102.4c-88.747-78.080-145.067-192.427-145.067-320 0-221.44 168.533-403.2 384-424.533v86.187c-168.107 20.907-298.667 164.693-298.667 338.347zM692.907 613.973l-241.493-241.493-120.747 120.747-60.16-60.16 180.907-180.907 301.653 301.653-60.16 60.16z" />
<glyph unicode="&#xe913;" glyph-name="quote" horiz-adv-x="1349" d="M0-49.659v999.025l499.512-499.513v-499.512h-499.512zM832.537-49.659v999.025l499.512-499.513v-499.512h-499.512z" />
<glyph unicode="&#xe914;" glyph-name="settings" d="M816.64 407.893c1.707 12.8 2.56 26.027 2.56 40.107 0 13.653-0.853 27.307-2.987 40.107l86.613 67.413c7.68 5.973 9.813 17.493 5.12 26.027l-81.92 141.653c-5.12 9.387-15.787 12.373-25.173 9.387l-101.973-40.96c-21.333 16.213-43.947 29.867-69.12 40.107l-15.36 108.373c-1.707 10.24-10.24 17.493-20.48 17.493h-163.84c-10.24 0-18.347-7.253-20.053-17.493l-15.36-108.373c-25.173-10.24-48.213-24.32-69.12-40.107l-101.973 40.96c-9.387 3.413-20.053 0-25.173-9.387l-81.493-141.653c-5.12-8.96-3.413-20.053 5.12-26.027l86.613-67.413c-2.133-12.8-3.84-26.88-3.84-40.107s0.853-27.307 2.987-40.107l-86.613-67.413c-7.68-5.973-9.813-17.493-5.12-26.027l81.92-141.653c5.12-9.387 15.787-12.373 25.173-9.387l101.973 40.96c21.333-16.213 43.947-29.867 69.12-40.107l15.36-108.373c2.133-10.24 10.24-17.493 20.48-17.493h163.84c10.24 0 18.773 7.253 20.053 17.493l15.36 108.373c25.173 10.24 48.213 23.893 69.12 40.107l101.973-40.96c9.387-3.413 20.053 0 25.173 9.387l81.92 141.653c5.12 9.387 2.987 20.053-5.12 26.027l-85.76 67.413zM512 294.4c-84.48 0-153.6 69.12-153.6 153.6s69.12 153.6 153.6 153.6 153.6-69.12 153.6-153.6-69.12-153.6-153.6-153.6z" />
<glyph unicode="&#xe915;" glyph-name="toggle-on" d="M725.333 704h-426.667c-141.227 0-256-114.773-256-256s114.773-256 256-256h426.667c141.227 0 256 114.773 256 256s-114.773 256-256 256zM725.333 277.333h-426.667c-94.293 0-170.667 76.373-170.667 170.667s76.373 170.667 170.667 170.667h426.667c94.293 0 170.667-76.373 170.667-170.667s-76.373-170.667-170.667-170.667zM725.333 576c-70.827 0-128-57.173-128-128s57.173-128 128-128 128 57.173 128 128-57.173 128-128 128z" />
<glyph unicode="&#xe916;" glyph-name="video" d="M853.333 789.333h-682.667c-46.933 0-85.333-38.4-85.333-85.333v-512c0-46.933 38.4-85.333 85.333-85.333h682.667c46.933 0 85.333 38.4 85.333 85.333v512c0 46.933-38.4 85.333-85.333 85.333zM405.333 256v384l298.667-192-298.667-192z" />
<glyph unicode="&#xe917;" glyph-name="view" d="M512 768c-213.333 0-395.52-132.693-469.333-320 73.813-187.307 256-320 469.333-320s395.52 132.693 469.333 320c-73.813 187.307-256 320-469.333 320zM512 234.667c-117.76 0-213.333 95.573-213.333 213.333s95.573 213.333 213.333 213.333 213.333-95.573 213.333-213.333-95.573-213.333-213.333-213.333zM512 576c-70.827 0-128-57.173-128-128s57.173-128 128-128 128 57.173 128 128-57.173 128-128 128z" />
<glyph unicode="&#xe918;" glyph-name="edit" d="M128 224v-160h160l471.893 471.893-160 160-471.893-471.893zM883.627 659.627c16.64 16.64 16.64 43.52 0 60.16l-99.84 99.84c-16.64 16.64-43.52 16.64-60.16 0l-78.080-78.080 160-160 78.080 78.080z" />
<glyph unicode="&#xe919;" glyph-name="facebook" d="M1023.29 439.322c0 273.678-221.805 495.484-495.484 495.484-273.677 0-495.483-221.806-495.483-495.484s221.806-495.484 495.483-495.484c2.904 0 5.807 0 8.711 0.195v385.546h-106.453v124.066h106.453v91.354c0 105.872 64.644 163.549 159.097 163.549 45.291 0 84.193-3.29 95.42-4.839v-110.711h-65.034c-51.289 0-61.354-24.384-61.354-60.191v-78.967h122.903l-16.064-124.066h-106.84v-366.774c207.096 59.418 358.644 250.064 358.644 476.322z" />
<glyph unicode="&#xe91a;" glyph-name="gmail" d="M994.258 439.319c0 31.133-2.92 62.292-8.704 92.543-2.61 13.692-14.6 23.588-28.52 23.588h-456.324c-16.047 0-29.032-12.985-29.032-29.032v-174.192c0-16.047 12.985-29.032 29.032-29.032h234.129c-14.587-29.531-34.69-55.157-58.299-76.714l164.091-164.091c94.416 89.953 153.626 216.533 153.626 356.93zM498.78 702.548c56.961 0 111.14-18.089 156.672-52.337 11.512-8.648 27.757-7.599 37.964 2.694l123.897 123.898c5.754 5.756 8.846 13.666 8.476 21.803-0.367 8.137-4.109 15.736-10.349 20.981-88.655 74.307-201.127 115.219-316.66 115.219-170.030 0-320.24-86.427-409.038-217.649l170.415-170.414c40.657 91.578 132.13 155.805 238.623 155.805zM498.78-56.161c110.833 0 212.89 37.161 295.358 99.070l-167.17 167.17c-38.208-21.514-81.88-33.98-128.188-33.98-106.493 0-197.966 64.225-238.623 155.807l-170.415-170.417c88.798-131.221 239.009-217.65 409.038-217.65zM239.776 397.5c-2.224 13.698-4.227 27.499-4.227 41.816s2.003 28.114 4.227 41.816l-182.176 182.175c-34.467-67.315-54.31-143.313-54.31-223.991 0-80.681 19.843-156.675 54.312-223.992l182.174 182.176z" />
<glyph unicode="&#xe91b;" glyph-name="linkedin" d="M498.774 951.323c-97.997 0-193.793-29.060-275.275-83.504s-144.989-131.828-182.492-222.366c-37.502-90.537-47.314-190.162-28.196-286.279 19.118-96.114 66.309-184.399 135.603-253.694s157.581-116.485 253.697-135.604c96.114-19.119 195.739-9.305 286.277 28.196s167.923 101.009 222.367 182.49c54.444 81.484 83.502 177.281 83.502 275.278 0 131.412-52.201 257.439-145.124 350.36-92.92 92.921-218.948 145.124-350.36 145.124v0zM354.694 195.059h-108.094v348.206h108.094v-348.206zM300.581 590.792c-12.44-0.050-24.616 3.587-34.989 10.455s-18.477 16.655-23.288 28.127c-4.811 11.473-6.113 24.114-3.742 36.327s8.311 23.447 17.066 32.284c8.756 8.837 19.935 14.881 32.124 17.366s24.842 1.301 36.359-3.403c11.517-4.704 21.38-12.717 28.344-23.025s10.716-22.45 10.778-34.891c0.036-16.681-6.534-32.699-18.277-44.547-11.74-11.852-27.694-18.571-44.375-18.693zM759.557 195.059h-108.029v169.505c0 40.422-0.783 92.252-56.198 92.252-55.418 0-65.196-43.943-65.196-89.316v-172.442h-107.639v348.206h103.725v-47.461h1.5c14.409 27.38 49.681 56.264 102.294 56.264 109.396 0 129.543-72.106 129.543-165.726v-191.283z" />
<glyph unicode="&#xe91c;" glyph-name="twitter" d="M527.806 934.806c-273.606 0-495.483-221.878-495.483-495.484s221.877-495.484 495.483-495.484c273.606 0 495.484 221.878 495.484 495.484s-221.878 495.484-495.484 495.484zM754.037 548.481c0.221-4.876 0.327-9.774 0.327-14.696 0-150.28-114.391-323.574-323.581-323.584v0c-64.228 0-123.993 18.828-174.323 51.088 8.899-1.050 17.956-1.572 27.127-1.572 53.285 0 102.325 18.174 141.254 48.683-49.786 0.922-91.764 33.802-106.248 78.99 6.933-1.331 14.062-2.055 21.372-2.055 10.382 0 20.437 1.397 29.993 4.007-52.038 10.418-91.239 56.409-91.239 111.477 0 0.515 0 0.978 0.015 1.453 15.325-8.522 32.85-13.649 51.51-14.224-30.537 20.378-50.61 55.207-50.61 94.667 0 20.837 5.633 40.356 15.401 57.164 56.082-68.814 139.898-114.072 234.42-118.829-1.949 8.331-2.956 17.012-2.956 25.934 0 62.781 50.936 113.717 113.74 113.717 32.715 0 62.263-13.828 83.013-35.935 25.911 5.111 50.242 14.577 72.218 27.604-8.506-26.544-26.528-48.817-50.011-62.902 23.007 2.752 44.93 8.853 65.305 17.91-15.218-22.809-34.519-42.846-56.726-58.897z" />
</font>
</defs>
</svg>
