<svg width="12" height="15" viewBox="0 0 12 15" fill="none" xmlns="http://www.w3.org/2000/svg"><path d="M9.911 4.893h-.666V3.56a3.335 3.335 0 00-6.667 0v1.333h-.667c-.733 0-1.333.6-1.333 1.334v6.666c0 .734.6 1.334 1.333 1.334h8c.734 0 1.334-.6 1.334-1.334V6.227c0-.734-.6-1.334-1.334-1.334zm-4 6c-.733 0-1.333-.6-1.333-1.333s.6-1.333 1.333-1.333c.734 0 1.334.6 1.334 1.333s-.6 1.333-1.334 1.333zm2.067-6H3.845V3.56c0-1.14.926-2.067 2.066-2.067 1.14 0 2.067.927 2.067 2.067v1.333z" fill="#C4C4C4"/></svg>