<svg width="16" height="16" viewBox="0 0 16 16" fill="none" xmlns="http://www.w3.org/2000/svg"><g clip-path="url(#clip0_188_8043)"><path d="M8.32.59a3.96 3.96 0 00-3.955 3.956A3.96 3.96 0 008.32 8.5a3.96 3.96 0 003.955-3.955A3.96 3.96 0 008.32.59zm4.921 10.495A5.638 5.638 0 009.2 9.38H7.441a5.638 5.638 0 00-4.042 1.705 5.764 5.764 0 00-1.67 4.066c0 .243.196.44.439.44h12.305a.44.44 0 00.44-.44 5.764 5.764 0 00-1.672-4.066z" fill="#C4C4C4"/><path stroke="#000" d="M15 13.5h10"/></g><defs><clipPath id="clip0_188_8043"><path fill="#fff" transform="translate(.82 .59)" d="M0 0h15v15H0z"/></clipPath></defs></svg>