<svg width="17" height="17" viewBox="0 0 17 17" fill="none" xmlns="http://www.w3.org/2000/svg">
<path d="M8.65234 2.60703C9.81234 2.60703 10.7523 3.54703 10.7523 4.70703C10.7523 5.86703 9.81234 6.80703 8.65234 6.80703C7.49234 6.80703 6.55234 5.86703 6.55234 4.70703C6.55234 3.54703 7.49234 2.60703 8.65234 2.60703ZM8.65234 11.607C11.6223 11.607 14.7523 13.067 14.7523 13.707V14.807H2.55234V13.707C2.55234 13.067 5.68234 11.607 8.65234 11.607ZM8.65234 0.707031C6.44234 0.707031 4.65234 2.49703 4.65234 4.70703C4.65234 6.91703 6.44234 8.70703 8.65234 8.70703C10.8623 8.70703 12.6523 6.91703 12.6523 4.70703C12.6523 2.49703 10.8623 0.707031 8.65234 0.707031ZM8.65234 9.70703C5.98234 9.70703 0.652344 11.047 0.652344 13.707V16.707H16.6523V13.707C16.6523 11.047 11.3223 9.70703 8.65234 9.70703Z" fill="#B50D04"/>
</svg>
