<svg width="12" height="15" viewBox="0 0 12 15" fill="none" xmlns="http://www.w3.org/2000/svg">
<path d="M9.91146 4.89323H9.24479V3.5599C9.24479 1.7199 7.75146 0.226562 5.91146 0.226562C4.07146 0.226562 2.57812 1.7199 2.57812 3.5599V4.89323H1.91146C1.17812 4.89323 0.578125 5.49323 0.578125 6.22656V12.8932C0.578125 13.6266 1.17812 14.2266 1.91146 14.2266H9.91146C10.6448 14.2266 11.2448 13.6266 11.2448 12.8932V6.22656C11.2448 5.49323 10.6448 4.89323 9.91146 4.89323ZM5.91146 10.8932C5.17812 10.8932 4.57812 10.2932 4.57812 9.5599C4.57812 8.82656 5.17812 8.22656 5.91146 8.22656C6.64479 8.22656 7.24479 8.82656 7.24479 9.5599C7.24479 10.2932 6.64479 10.8932 5.91146 10.8932ZM7.97812 4.89323H3.84479V3.5599C3.84479 2.4199 4.77146 1.49323 5.91146 1.49323C7.05146 1.49323 7.97812 2.4199 7.97812 3.5599V4.89323Z" fill="#C4C4C4"/>
</svg>
