<svg width="16" height="16" viewBox="0 0 16 16" fill="none" xmlns="http://www.w3.org/2000/svg">
<g clip-path="url(#clip0_188_8043)">
<path d="M8.32031 0.59082C6.13948 0.59082 4.36523 2.36507 4.36523 4.5459C4.36523 6.72673 6.13948 8.50098 8.32031 8.50098C10.5011 8.50098 12.2754 6.72673 12.2754 4.5459C12.2754 2.36507 10.5011 0.59082 8.32031 0.59082Z" fill="#C4C4C4"/>
<path d="M13.2412 11.0848C12.1584 9.98536 10.7229 9.37988 9.19922 9.37988H7.44141C5.91773 9.37988 4.48225 9.98536 3.39943 11.0848C2.32192 12.1789 1.72852 13.623 1.72852 15.1514C1.72852 15.3941 1.92527 15.5908 2.16797 15.5908H14.4727C14.7154 15.5908 14.9121 15.3941 14.9121 15.1514C14.9121 13.623 14.3187 12.1789 13.2412 11.0848Z" fill="#C4C4C4"/>
<line x1="15" y1="13.5" x2="25" y2="13.5" stroke="black"/>
</g>
<defs>
<clipPath id="clip0_188_8043">
<rect width="15" height="15" fill="white" transform="translate(0.820312 0.59082)"/>
</clipPath>
</defs>
</svg>
