<svg width="31" height="31" viewBox="0 0 31 31" fill="none" xmlns="http://www.w3.org/2000/svg"><g clip-path="url(#clip0_348_24748)"><path d="M30.979 15.763c0-8.285-6.715-15-15-15-8.286 0-15 6.715-15 15s6.714 15 15 15c.087 0 .175 0 .263-.006V19.085H13.02v-3.756h3.223v-2.766c0-3.205 1.957-4.95 4.817-4.95 1.37 0 2.548.099 2.888.146v3.351H21.98c-1.553 0-1.858.739-1.858 1.823v2.39h3.72l-.486 3.756h-3.234v11.104c6.27-1.8 10.858-7.57 10.858-14.42z" fill="#fff"/></g><defs><clipPath id="clip0_348_24748"><path fill="#fff" transform="translate(.979 .763)" d="M0 0h30v30H0z"/></clipPath></defs></svg>