<svg width="31" height="31" viewBox="0 0 31 31" fill="none" xmlns="http://www.w3.org/2000/svg"><g clip-path="url(#clip0_348_24754)" fill="#fff"><path d="M30.1 15.763c0-.943-.089-1.886-.264-2.802a.88.88 0 00-.863-.714H15.158a.878.878 0 00-.879.879v5.273c0 .486.393.88.88.88h7.087a7.87 7.87 0 01-1.765 2.322l4.968 4.967c2.858-2.723 4.65-6.555 4.65-10.805zm-15-7.969c1.724 0 3.364.548 4.743 1.584a.88.88 0 001.15-.081l3.75-3.751a.878.878 0 00-.057-1.295A14.95 14.95 0 0015.1.763c-5.148 0-9.695 2.616-12.383 6.589l5.159 5.159c1.23-2.773 4-4.717 7.224-4.717zm0 22.969c3.355 0 6.445-1.125 8.941-3l-5.06-5.06A7.888 7.888 0 0115.1 23.73c-3.224 0-5.993-1.944-7.224-4.716l-5.16 5.159c2.689 3.972 7.236 6.589 12.384 6.589zM7.259 17.029a7.848 7.848 0 01-.128-1.266c0-.434.06-.851.128-1.266L1.744 8.982A14.833 14.833 0 00.1 15.762c0 2.443.6 4.744 1.644 6.782l5.515-5.515z"/></g><defs><clipPath id="clip0_348_24754"><path fill="#fff" transform="translate(.1 .763)" d="M0 0h30v30H0z"/></clipPath></defs></svg>