<svg width="13" height="13" viewBox="0 0 13 13" fill="none" xmlns="http://www.w3.org/2000/svg"><g clip-path="url(#clip0_188_5112)" fill="#fff"><path d="M6.24.09a3.168 3.168 0 00-3.164 3.165A3.168 3.168 0 006.24 6.419a3.168 3.168 0 003.164-3.164A3.168 3.168 0 006.24.09zm3.937 8.396a4.51 4.51 0 00-3.234-1.364H5.537a4.51 4.51 0 00-3.233 1.364 4.611 4.611 0 00-1.337 3.253c0 .194.157.352.351.352h9.844a.352.352 0 00.352-.352 4.611 4.611 0 00-1.337-3.253z"/></g><defs><clipPath id="clip0_188_5112"><path fill="#fff" transform="translate(.24 .09)" d="M0 0h12v12H0z"/></clipPath></defs></svg>