<svg width="31" height="31" viewBox="0 0 31 31" fill="none" xmlns="http://www.w3.org/2000/svg"><path d="M15.979.763c-8.283 0-15 6.717-15 15 0 8.283 6.717 15 15 15 8.283 0 15-6.717 15-15 0-8.283-6.717-15-15-15zm6.848 11.695c.007.148.01.296.01.445 0 4.55-3.463 9.796-9.796 9.796a9.746 9.746 0 01-5.277-1.547 6.908 6.908 0 005.097-1.426 3.447 3.447 0 01-3.216-2.391 3.425 3.425 0 001.555-.06 3.444 3.444 0 01-2.762-3.374v-.044c.464.258.995.413 1.56.43a3.44 3.44 0 01-1.066-4.596 9.775 9.775 0 007.096 3.598 3.444 3.444 0 015.867-3.14 6.905 6.905 0 002.187-.836 3.456 3.456 0 01-1.514 1.904 6.865 6.865 0 001.977-.542 6.995 6.995 0 01-1.718 1.783z" fill="#fff"/></svg>